<svg height="100%" xmlns="http://www.w3.org/2000/svg" viewBox="0 0 363.5 589.3">
  <defs>
    <style>
      .cls-1{fill:#16db93}.cls-2{fill:#f8f8f8}
    </style>
  </defs>
  <g id="Layer_2" data-name="Layer 2">
    <g id="Layer_1-2" data-name="Layer 1">
      <path class="cls-1" d="M245.577 322.7c-4.909-15.162-28.863-20.633-54.123-11.63-.176.063-.349.132-.525.2l19.853 54.63a.522.522 0 00.679.31c23.888-9.474 38.911-28.696 34.116-43.51z"/>
      <path class="cls-2" d="M263.425 589.3a715.91 715.91 0 00-7.232-5.351c-4.76-3.5-9.8-7.238-15.021-11.092.08-.081.184-.143.264-.224A2441.266 2441.266 0 000 386.566c17.791-32.915 29.738-76.836 32.686-125.856 29.841-5.156 64.494-17.768 98.923-37.349q7.485-4.258 14.591-8.735l14.035 35.582-.1.023-.665.2v-.006l-2.828.849c-65.733 22.145-89.156 94.863-44.208 150.662z"/>
      <path class="cls-1" d="M361.9 186.407c-33.211 137.232-67.487 272.059-80.233 391.926L252.6 492.084c-12.627-37.449-3.117-78.772 24.4-105.252 26.4-25.4 40.475-57.4 34.78-86.746-9.223-47.613-68.611-73.524-136.94-54.247l-14.612 4.369-14.028-35.582c45.813-28.849 79.23-63.913 91.981-93.99a.062.062 0 01.024-.029 9.92 9.92 0 0110.7-.664c52.01 29.175 126.47 10.772 112.995 66.464z"/>
      <path class="cls-2" d="M33.386 239.271c.011-.786.011-1.571.011-2.357 0-42.081-6.6-81.282-17.969-114.168a183.843 183.843 0 0076.533-31.493l39.379 94.983c-26.027 23.205-58.507 43.658-97.954 53.035z"/>
      <path class="cls-1" d="M203.292 96.755c-12.809 20.832-36.353 57.741-71.954 89.478L91.962 91.25C118.281 72.721 145.091 44.1 166.972 0l36.876 65.173a31.069 31.069 0 01-.556 31.582z"/>
    </g>
  </g>
</svg>
