<svg width="100%" data-name="Layer 1" xmlns="http://www.w3.org/2000/svg" viewBox="0 0 206.042 205.338">
    <style>
      .svg-path-1 {
        animation: svg-color 1.35s ease-in alternate infinite;
      }
      .svg-path-2 {
        stroke-dasharray: 1000;
        stroke-dashoffset: 1000;
        animation: dash 1.35s ease-in alternate infinite;
      }
      @keyframes dash {
        from {
          stroke-dashoffset: 1000;
        }
        to {
          stroke-dashoffset: 0;
        }
      }
      @keyframes svg-color {
        from {
          fill: transparent;
        }
        to {
          fill: #16db93;
        }
      }
    </style>
  <path fill="#16db93" d="M47.049 150.453v54.062h26.532v-35.179a61.647 61.647 0 01-26.532-18.883z" class="svg-path-1" />
  <path d="M14.048 191.394v-42.93c0-6.239-.057-12.477-.093-18.716-.077-13.111.239-26.278 2.465-39.228 2.512-14.613 7.72-28.456 16.548-40.446A85.248 85.248 0 0164.4 24.007a104.841 104.841 0 0143.171-10.023c15.091-.389 30.348 2.08 43.965 8.8a70.456 70.456 0 0129.717 27.559c7.477 12.79 10.688 27.572 10.836 42.294.147 14.693-2.763 30.935-12.073 42.759a29.719 29.719 0 01-16.316 10.936 22.3 22.3 0 01-18.931-3.921 28.4 28.4 0 01-9.859-16c-1.964-8.254-.77-16.738-.608-25.106.146-7.6-.984-15.147-4.564-21.934a30.9 30.9 0 00-15.1-14.183c-13.479-5.665-28.579 1.112-36.873 12.273a51.384 51.384 0 00-8.6 19.482 52.413 52.413 0 00-.356 22.7c2.914 13.091 13.4 25.332 27.531 25.98 7.47.342 14.728-2.646 20.666-7.007a41.4 41.4 0 0012.3-13.743 35.847 35.847 0 004.648-15.481" class="svg-path-2" fill="none" stroke="#b8b8b8" stroke-linecap="round" stroke-linejoin="round" stroke-width="27" />
</svg>