<svg height="100%" xmlns="http://www.w3.org/2000/svg" viewBox="0 0 205.164 207.339">
 <defs>
    <style>
      .cls-1{fill:#16db93} .cls-2{fill: #b8b8b8}
    </style>
  </defs>
  <path class="cls-1" d="M47.6 155.716v51.623h26.528v-37.124A91.5 91.5 0 0147.6 155.716z"/>
  <path class="cls-2" d="M193.23 44.4a82.506 82.506 0 00-33.782-32.949C145.134 3.854 128.638 0 110.419 0 89.457 0 70.386 4.593 53.736 13.652a98.055 98.055 0 00-39.495 39.607C2.327 74.907.119 99.748 0 124.014c-.008 1.687.047 9.758.114 19.442v49.414a14.469 14.469 0 0014.469 14.469 14.469 14.469 0 0014.47-14.469v-49.414c-.6-34.6 1.841-74.179 28.125-96.53 11.515-9.792 26.3-15.2 41.305-17.051a83 83 0 0132.817 2.063C141.908 34.959 151.861 40.7 159.129 49c11.067 12.644 15.1 30.185 14.838 46.985-.178 11.513-2.309 23.339-9.215 32.735a7.946 7.946 0 01-6.129 3.3c-5.453.133-7.34-5.428-7.81-10.094-.983-9.763.647-19.578 1.014-29.384s-.716-20.18-6.381-28.192c-4.661-6.593-11.982-10.892-19.609-13.542a61.073 61.073 0 00-46.237 2.41c-21.135 10.289-31.8 32.067-31.8 54.933 0 15.612 4.225 28.272 12.559 37.629 8.482 9.527 20.162 14.357 34.716 14.357a45.534 45.534 0 0021.949-5.314 42.4 42.4 0 0011.966-9.742 29.115 29.115 0 008.206 9.033 32.473 32.473 0 0019.48 6.023 40.168 40.168 0 0025.915-9.086c7.228-5.853 12.883-14.061 16.808-24.4a93.693 93.693 0 005.761-33.36c.004-18.334-4.011-34.783-11.93-48.891zm-74.637 56.7c-1.7 27.493-12.508 30.673-20.494 30.673-7.964 0-17.1-2.631-17.1-23.142 0-10.492 2.51-18.8 7.462-24.684 4.8-5.71 11.434-8.485 20.271-8.485a60.324 60.324 0 0111.1.992z"/>
</svg>