<?xml version="1.0" standalone="no"?>
<!DOCTYPE svg PUBLIC "-//W3C//DTD SVG 20010904//EN"
 "http://www.w3.org/TR/2001/REC-SVG-20010904/DTD/svg10.dtd">
<svg version="1.0" xmlns="http://www.w3.org/2000/svg"
 width="207.000000pt" height="207.000000pt" viewBox="0 0 207.000000 207.000000"
 preserveAspectRatio="xMidYMid meet">
<metadata>
Created by potrace 1.14, written by Peter Selinger 2001-2017
</metadata>
<g transform="translate(0.000000,207.000000) scale(0.100000,-0.100000)"
fill="#000000" stroke="none">
<path d="M965 2063 c-425 -51 -751 -305 -882 -688 -13 -38 -33 -122 -45 -185
-20 -105 -22 -156 -25 -591 l-3 -476 23 -43 c55 -105 197 -104 249 1 15 30 17
87 21 464 3 237 8 450 11 475 33 214 81 348 171 475 81 114 204 197 360 244
90 27 113 31 215 38 153 10 310 -26 422 -99 170 -110 256 -283 263 -527 3
-121 -14 -221 -51 -296 -43 -89 -76 -115 -124 -95 -54 22 -61 81 -46 376 11
213 -50 331 -209 405 -138 65 -303 72 -452 19 -175 -61 -303 -206 -353 -398
-23 -90 -24 -242 -3 -332 31 -138 122 -257 237 -311 176 -82 410 -50 525 74
l23 26 47 -47 c64 -66 128 -94 221 -97 128 -5 222 34 315 129 118 121 178 296
179 521 1 179 -12 258 -65 396 -104 269 -333 456 -644 526 -65 14 -307 25
-380 16z m233 -757 c7 -4 10 -33 7 -79 -3 -40 -7 -106 -10 -148 -15 -236 -82
-334 -220 -322 -99 8 -141 60 -151 186 -20 237 90 378 291 372 40 -1 77 -5 83
-9z"/>
<path d="M489 502 c-1 -4 -2 -118 -3 -254 l-1 -248 133 0 132 0 -2 186 -3 186
-60 25 c-33 14 -90 45 -127 69 -38 24 -68 40 -69 36z"/>
</g>
</svg>
